<?xml version="1.0" encoding="UTF-8" standalone="no"?>
<!-- Created with Inkscape (http://www.inkscape.org/) -->

<svg
   xmlns:dc="http://purl.org/dc/elements/1.1/"
   xmlns:cc="http://creativecommons.org/ns#"
   xmlns:rdf="http://www.w3.org/1999/02/22-rdf-syntax-ns#"
   xmlns:svg="http://www.w3.org/2000/svg"
   xmlns="http://www.w3.org/2000/svg"
   xmlns:sodipodi="http://sodipodi.sourceforge.net/DTD/sodipodi-0.dtd"
   xmlns:inkscape="http://www.inkscape.org/namespaces/inkscape"
   id="svg3416"
   version="1.1"
   inkscape:version="0.91 r13725"
   width="850"
   height="325"
   viewBox="0 0 850 325"
   sodipodi:docname="Functionist_council_insignia.svg">
  <metadata
     id="metadata3422">
    <rdf:RDF>
      <cc:Work
         rdf:about="">
        <dc:format>image/svg+xml</dc:format>
        <dc:type
           rdf:resource="http://purl.org/dc/dcmitype/StillImage" />
        <dc:title></dc:title>
      </cc:Work>
    </rdf:RDF>
  </metadata>
  <defs
     id="defs3420" />
  <sodipodi:namedview
     pagecolor="#ffb9ff"
     bordercolor="#666666"
     borderopacity="1"
     objecttolerance="10"
     gridtolerance="10"
     guidetolerance="10"
     inkscape:pageopacity="0"
     inkscape:pageshadow="2"
     inkscape:window-width="1920"
     inkscape:window-height="1027"
     id="namedview3418"
     showgrid="false"
     inkscape:zoom="2.0294118"
     inkscape:cx="425"
     inkscape:cy="162.5"
     inkscape:window-x="0"
     inkscape:window-y="0"
     inkscape:window-maximized="1"
     inkscape:current-layer="svg3416" />
  <path
     style="fill:#000000"
     d="m 399.72597,309.8138 -0.35097,-15.18621 -8.75,-2.38905 C 372.57422,287.31006 352.41659,275.8998 336.3532,261.5179 l -8.32035,-7.44941 -11.20392,6.69995 c -6.16217,3.68497 -12.20372,6.56643 -13.42568,6.40326 -1.34553,-0.17969 -5.28936,-5.46139 -10,-13.3923 L 285.625,240.6838 172.0835,198.7794 58.54199,156.875 32.35176,110 C 17.947133,84.21875 5.0617231,61.608054 3.7175153,59.754009 2.3733074,57.899964 1.6900883,56.1485 2.1992505,55.861868 2.7084128,55.575235 24.21875,60.038565 50,65.780379 84.98109,73.571115 97.276342,76.77889 98.456729,78.42252 99.32668,79.633884 109.73293,93.5625 121.58173,109.375 L 143.125,138.125 220,166.41526 c 42.28125,15.55965 76.98454,28.20011 77.11842,28.08991 0.13389,-0.11025 -0.26962,-2.43457 -0.8967,-5.16526 -0.62706,-2.7307 -1.51508,-9.81592 -1.97338,-15.74495 l -0.83327,-10.78002 -62.64503,-22.87395 c -34.45478,-12.58068 -63.62178,-23.70056 -64.81558,-24.71085 -2.82086,-2.38727 -13.72019,-22.538923 -12.90441,-23.858859 0.34415,-0.556857 32.54621,8.469298 71.56012,20.058129 39.01393,11.58882 71.2796,21.07059 71.70152,21.07059 0.42191,0 1.3337,-2.47596 2.02618,-5.50214 l 1.25907,-5.50213 -12.29847,-7.11399 C 279.46883,109.85272 275,106.5078 275,105.17634 c 0,-3.40828 25.74795,-47.010094 28.02959,-47.465569 1.14126,-0.227825 7.28691,2.621204 13.657,6.331177 l 11.58199,6.745403 8.05321,-7.303551 C 351.85095,49.400226 372.48191,37.73332 390.6514,32.760148 L 399.375,30.372411 399.72597,15.186206 400.07695,0 428.75,0 l 28.67305,0 0.35097,15.186206 0.35098,15.186205 8.7236,2.387737 c 18.16949,4.973172 38.80045,16.640078 54.32961,30.723652 l 8.05321,7.303551 11.58199,-6.745404 c 6.37009,-3.709972 12.55673,-6.557685 13.74808,-6.328251 2.44882,0.471599 27.93851,43.593124 27.93851,47.264244 0,1.5834 -3.81499,4.49657 -12.36626,9.44301 -12.26574,7.09506 -12.3575,7.18375 -11.28856,10.91089 0.59272,2.06674 1.38354,4.06355 1.75737,4.43738 0.37384,0.37383 31.06547,-8.33841 68.20366,-19.36054 37.13818,-11.022124 67.8042,-19.586785 68.14673,-19.032577 0.81432,1.317612 -10.09487,21.475097 -12.9074,23.849687 -1.1938,1.0079 -19.60804,8.18639 -40.92054,15.95218 -21.3125,7.76581 -47.89063,17.48484 -59.0625,21.59788 l -20.3125,7.47824 -0.0248,6.43545 c -0.0136,3.53951 -0.58574,10.31646 -1.27139,15.0599 -0.68565,4.74345 -1.03461,8.83647 -0.77547,9.0956 0.25913,0.25913 33.03438,-11.49686 72.83388,-26.12444 l 72.36273,-26.5956 21.54327,-28.75 c 11.8488,-15.8125 22.25505,-29.741116 23.125,-30.95248 1.18039,-1.64363 13.47564,-4.851405 48.45673,-12.642141 25.78125,-5.741814 47.29159,-10.205144 47.80075,-9.918512 0.50916,0.286633 -0.17406,2.038097 -1.51826,3.892142 C 844.93827,61.608054 832.05263,84.21875 817.6477,110 l -26.19078,46.875 -108.43288,40.03594 c -88.65047,32.7318 -108.82748,40.5995 -110.5957,43.125 -1.18954,1.69899 -5.3347,8.57343 -9.21147,15.27656 -4.65978,8.05702 -7.77616,12.1734 -9.19526,12.14589 -1.18063,-0.0229 -7.18837,-3.04498 -13.35054,-6.71575 l -11.20392,-6.67415 -8.32035,7.44941 c -16.06339,14.3819 -36.22102,25.79216 -54.2718,30.72064 l -8.75,2.38905 -0.35098,15.18621 -0.35097,15.1862 -28.67305,0 -28.67305,0 -0.35098,-15.1862 z m 55.54805,-2.4544 0.35098,-15.1406 10.33242,-2.981 c 20.73119,-5.98111 38.60794,-16.2146 53.43533,-30.58887 l 8.76775,-8.49983 13.00055,7.47874 c 9.82481,5.65185 13.25181,7.08403 14.02918,5.86295 4.55435,-7.15409 25.02471,-43.67701 24.65535,-43.98978 -0.25882,-0.21916 -5.95495,-3.60436 -12.65808,-7.52266 C 560.48437,208.06005 555,204.36889 555,203.77577 c 0,-0.59311 1.22593,-6.04467 2.72429,-12.11457 3.90844,-15.83325 3.86247,-42.58211 -0.101,-58.81309 -1.54814,-6.33977 -2.50603,-12.0265 -2.12861,-12.63716 0.37741,-0.61066 5.90488,-4.09273 12.28328,-7.73794 6.3784,-3.64521 11.81927,-6.80566 12.09082,-7.02323 0.3943,-0.3159 -20.37989,-37.326088 -24.70723,-44.017063 -0.85964,-1.329187 -3.6976,-0.18934 -13.22696,5.3125 -6.67292,3.85263 -12.81034,7.004783 -13.63876,7.004783 -0.82843,0 -4.58077,-3.13563 -8.33853,-6.968065 -13.13944,-13.40053 -33.53109,-25.114334 -53.99988,-31.01974 L 455.625,32.781206 455.27402,17.640602 454.92305,2.5 428.75,2.5 l -26.17305,0 -0.35098,15.140602 -0.35097,15.140604 -10.33243,2.980989 c -20.46878,5.905406 -40.86043,17.61921 -53.99987,31.01974 -3.75776,3.832435 -7.5101,6.968065 -8.33853,6.968065 -0.82842,0 -6.94303,-3.13898 -13.58802,-6.975513 -6.64499,-3.836531 -12.2406,-6.789656 -12.4347,-6.5625 -1.54844,1.812181 -25.89114,44.972713 -25.52723,45.260743 0.25893,0.20495 5.68947,3.35507 12.06787,7.00028 6.3784,3.64521 11.90587,7.12728 12.28329,7.73794 0.37741,0.61066 -0.58048,6.29739 -2.12862,12.63716 -3.96352,16.23098 -4.00949,42.97984 -0.101,58.81309 1.49836,6.0699 2.72429,11.52146 2.72429,12.11457 0,0.59312 -5.48438,4.28428 -12.1875,8.20258 -6.70313,3.9183 -12.39099,7.29523 -12.63969,7.50428 -0.32095,0.26977 22.98095,41.62775 25.48891,45.23962 0.13262,0.19099 6.07687,-3.00984 13.20944,-7.11295 l 12.96834,-7.4602 8.76775,8.49983 c 14.82739,14.37427 32.70414,24.60776 53.43533,30.58887 l 10.33242,2.981 0.35097,15.1406 0.35093,15.1406 26.17305,0 26.17305,0 0.35097,-15.1406 z m -46.06737,-51.72586 c -9.5658,-2.08038 -20.87434,-6.60473 -30.1569,-12.06528 -9.16436,-5.391 -25.97701,-22.20365 -31.36801,-31.36801 -18.62438,-31.66021 -18.62438,-67.74029 0,-99.4005 5.391,-9.16436 22.20365,-25.977012 31.36801,-31.368016 31.66021,-18.624366 67.74029,-18.624366 99.4005,0 9.16436,5.391004 25.97701,22.203656 31.36801,31.368016 18.62438,31.66021 18.62438,67.74029 0,99.4005 -5.391,9.16436 -22.20365,25.97701 -31.36801,31.36801 -21.18037,12.45953 -46.85801,16.9337 -69.2436,12.06528 z m 42.66835,-3.79268 c 25.6549,-6.93919 48.56317,-26.00406 59.99466,-49.92914 6.63098,-13.87803 8.6481,-23.07061 8.6481,-39.41172 0,-16.37096 -2.01637,-25.5325 -8.69615,-39.51163 -8.84547,-18.5114 -25.0874,-34.734032 -43.65989,-43.608034 -13.87803,-6.630974 -23.07061,-8.648095 -39.41172,-8.648095 -16.34111,0 -25.53369,2.017122 -39.41173,8.648095 -37.37156,17.856261 -59.20663,60.180174 -51.28788,99.413614 7.61475,37.72721 35.14432,65.88066 72.57461,74.21929 10.62206,2.36636 30.22696,1.80916 41.25,-1.17238 z M 375,225.15344 C 364.24924,221.62246 355.10415,213.8479 349.82349,203.75 c -2.48838,-4.75836 -2.94119,-7.45455 -2.93903,-17.5 0.002,-10.45253 0.40066,-12.62368 3.32605,-18.125 3.98288,-7.49 10.87444,-14.2931 18.53949,-18.30151 4.7569,-2.48761 7.45766,-2.94158 17.5,-2.94158 10.04234,0 12.7431,0.45396 17.5,2.94158 7.66505,4.00841 14.55661,10.81151 18.53949,18.30151 2.92538,5.50132 3.3238,7.67247 3.32605,18.125 0.002,13.45461 -2.13934,19.18617 -10.43556,27.9205 -7.36636,7.75532 -15.36026,11.19245 -27.05498,11.63279 -5.5,0.20708 -11.40625,-0.0854 -13.125,-0.64985 z m 27.67914,-5.04522 c 7.33263,-3.48452 13.85792,-9.97312 17.52761,-17.42908 4.08249,-8.29468 4.08249,-24.5636 0,-32.85828 -3.63863,-7.39285 -10.13476,-13.88899 -17.52761,-17.52761 -8.29468,-4.08249 -24.5636,-4.08249 -32.85828,0 -12.09869,5.95476 -19.65121,17.25336 -20.77355,31.07734 -1.41121,17.38211 8.26339,32.4101 24.70269,38.37176 7.69325,2.78992 21.22829,2.02537 28.92914,-1.63413 z M 458.75,225.15344 C 447.99924,221.62246 438.85415,213.8479 433.57349,203.75 c -2.48838,-4.75836 -2.94119,-7.45455 -2.93903,-17.5 0.002,-10.45253 0.40066,-12.62368 3.32605,-18.125 3.98288,-7.49 10.87444,-14.2931 18.53949,-18.30151 4.7569,-2.48761 7.45766,-2.94158 17.5,-2.94158 10.04234,0 12.7431,0.45396 17.5,2.94158 7.66505,4.00841 14.55661,10.81151 18.53949,18.30151 2.92538,5.50132 3.3238,7.67247 3.32605,18.125 0.002,13.45461 -2.13934,19.18617 -10.43556,27.9205 -7.36636,7.75532 -15.36026,11.19245 -27.05498,11.63279 -5.5,0.20708 -11.40625,-0.0854 -13.125,-0.64985 z m 27.67914,-5.04522 c 7.33263,-3.48452 13.85792,-9.97312 17.52761,-17.42908 4.08249,-8.29468 4.08249,-24.5636 0,-32.85828 -3.63863,-7.39285 -10.13476,-13.88899 -17.52761,-17.52761 -8.29468,-4.08249 -24.5636,-4.08249 -32.85828,0 -12.09869,5.95476 -19.65121,17.25336 -20.77355,31.07734 -1.41121,17.38211 8.26339,32.4101 24.70269,38.37176 7.69325,2.78992 21.22829,2.02537 28.92914,-1.63413 z M 417.5,152.65344 C 406.74924,149.12246 397.60415,141.3479 392.32349,131.25 c -2.48838,-4.75836 -2.94119,-7.45456 -2.93903,-17.5 0.002,-10.45252 0.40066,-12.62367 3.32605,-18.125 3.98288,-7.489995 10.87444,-14.2931 18.53949,-18.301515 4.7569,-2.487606 7.45766,-2.941576 17.5,-2.941576 10.04234,0 12.7431,0.45397 17.5,2.941576 7.66505,4.008415 14.55661,10.81152 18.53949,18.301515 2.92538,5.50133 3.3238,7.67248 3.32605,18.125 0.002,13.45461 -2.13934,19.18617 -10.43556,27.9205 -7.36636,7.75532 -15.36026,11.19245 -27.05498,11.63279 -5.5,0.20708 -11.40625,-0.0854 -13.125,-0.64985 z m 27.67914,-5.04522 c 7.33263,-3.48452 13.85792,-9.97312 17.52761,-17.42908 4.08249,-8.29468 4.08249,-24.5636 0,-32.858277 -3.63863,-7.392848 -10.13476,-13.888987 -17.52761,-17.527613 -8.29468,-4.082489 -24.5636,-4.082489 -32.85828,0 -12.09869,5.954756 -19.65121,17.25336 -20.77355,31.07734 -1.41121,17.38211 8.26339,32.4101 24.70269,38.37176 7.69325,2.78992 21.22829,2.02538 28.92914,-1.63413 z M 282.5,235.68001 c 0,-0.3135 -1.6875,-3.432 -3.75,-6.93001 -5.92231,-10.04427 -5.54791,-10.85715 8.62276,-18.72141 10.7633,-5.97328 12.21779,-7.16889 11.40482,-9.375 -0.7408,-2.01024 -16.97687,-8.43043 -79.20177,-31.31859 L 141.30588,140.54501 120.30952,112.46 C 108.76153,97.013251 98.448035,83.134586 97.390641,81.618525 95.743543,79.256961 89.338665,77.498334 52.68467,69.34332 29.15378,64.108018 9.4713461,60.004681 8.9459275,60.224794 8.4205089,60.444907 19.833356,81.79752 34.30781,107.67504 l 26.31719,47.05005 110,40.63855 c 60.5,22.3512 110.42187,40.6943 110.9375,40.76245 0.51562,0.0681 0.9375,-0.13259 0.9375,-0.44608 z M 685,193.15039 789.375,154.72197 815.69219,107.67349 c 14.47446,-25.876671 25.8873,-47.228582 25.36188,-47.448696 -0.52542,-0.220113 -20.20785,3.883224 -43.73874,9.118526 -36.65399,8.155014 -43.05887,9.913641 -44.70597,12.275205 -1.0574,1.516061 -11.36611,15.388336 -22.90826,30.827275 l -20.98573,28.0708 -50.29518,18.49696 c -108.28548,39.82393 -97.88864,35.62118 -99.27216,40.12914 l -1.22972,4.00677 12.91584,7.38675 c 7.10373,4.0627 12.91296,7.9947 12.90945,8.73775 -0.004,0.74307 -1.39222,3.60103 -3.08599,6.35103 -3.45438,5.60852 -3.89652,7.42354 -1.59511,6.54814 0.85938,-0.32689 48.53125,-17.88713 105.9375,-39.02275 z M 295.52155,138.125 c 0.56164,-2.30396 -4.6501,-4.05825 -66.46343,-22.37183 -36.89006,-10.9295 -68.18443,-20.16251 -69.54305,-20.517794 -2.14148,-0.560011 -1.84251,0.504124 2.24673,7.996824 2.5943,4.75354 5.15196,9.10119 5.6837,9.66144 0.53172,0.56025 29.02714,11.31389 63.32314,23.89697 l 62.35636,22.87833 0.89356,-9.52197 c 0.49145,-5.23708 1.1678,-10.64697 1.50299,-12.02197 z M 682.55486,112.89328 C 684.46861,110.87683 692.70897,95 691.84179,95 c -1.76503,0 -128.73744,37.83567 -129.52175,38.59534 -0.44273,0.42881 -0.1987,5.86283 0.54227,12.0756 l 1.34723,11.29594 58.68945,-21.52765 c 32.27918,-11.84022 59.12434,-21.98589 59.65587,-22.54595 z"
     id="path3426"
     inkscape:connector-curvature="0" />
  <path
     style="fill:#ffffff"
     d="m 377.41825,222.53351 c -5.93426,-1.26276 -12.85587,-5.21717 -17.70811,-10.1169 -7.43081,-7.50354 -11.02315,-17.11989 -10.40053,-27.84125 0.71005,-12.2268 6.02208,-22.19806 15.38874,-28.88633 6.7744,-4.83726 12.83468,-6.37184 23.56686,-5.96758 8.2488,0.31071 12.04573,1.32154 17.40103,4.63253 3.93904,2.43536 8.92619,7.08564 11.27911,10.51723 4.05001,5.90669 5.48863,10.52534 5.90721,18.96502 0.64964,13.09839 -2.47641,21.31707 -11.2454,29.56522 -7.43928,6.99742 -13.1224,9.15204 -24.79557,9.40065 -4.06521,0.0866 -8.29222,-0.0343 -9.39334,-0.26859 z"
     id="path3428"
     inkscape:connector-curvature="0" />
  <path
     style="fill:#ffffff"
     d="m 419.82609,150.02963 c -1.35508,-0.27461 -4.45942,-1.44434 -6.89855,-2.59939 -16.62695,-7.87371 -24.55949,-25.20279 -19.92178,-43.52024 3.2817,-12.961661 13.95471,-23.558812 26.18361,-25.997513 4.8809,-0.973354 14.51902,-0.980526 19.20595,-0.01429 12.26323,2.528128 23.79909,14.155241 26.25306,26.460745 0.96241,4.82601 0.97232,13.47032 0.0211,18.4417 -2.23969,11.70578 -12.34427,22.70017 -24.06818,26.18763 -3.25393,0.96793 -5.38554,1.22916 -11.16655,1.36847 -3.92971,0.0947 -8.25363,-0.0525 -9.6087,-0.32711 z"
     id="path3430"
     inkscape:connector-curvature="0" />
  <path
     style="fill:#ffffff"
     d="m 461.21739,222.53628 c -4.91821,-1.05611 -10.97136,-4.15533 -15.53729,-7.95514 -5.36578,-4.46545 -9.69428,-11.39335 -11.6664,-18.67244 -1.20053,-4.43114 -1.1659,-14.2391 0.067,-18.97102 3.56585,-13.68612 13.8517,-24.00106 26.5,-26.57494 4.78644,-0.97402 13.42389,-0.99401 18.45568,-0.0427 9.92298,1.87601 19.99912,9.94587 24.62154,19.7191 2.79909,5.91815 3.78596,14.7243 2.60517,23.24695 -1.09685,7.9169 -3.60446,12.67976 -10.07173,19.12986 -7.93388,7.91282 -13.39116,10.12589 -25.61163,10.38616 -4.06522,0.0866 -8.27826,-0.033 -9.36232,-0.26582 z"
     id="path3432"
     inkscape:connector-curvature="0" />
  <path
     style="fill:#ffffff"
     d="m 278.30725,234.74912 c -1.35508,-0.50749 -34.50508,-12.72215 -73.66667,-27.14369 -39.16159,-14.42153 -74.97246,-27.61196 -79.57971,-29.31205 l -8.37681,-3.09108 -0.10337,-33.67434 c -0.0941,-30.63961 -0.0338,-33.58552 0.66811,-32.68883 0.42432,0.54203 6.01431,7.96227 12.42221,16.48942 l 11.65073,15.50391 33.26087,12.21253 c 86.63526,31.81023 110.77875,40.91522 119.81501,45.18464 6.84623,3.2347 6.35978,3.95827 -8.18454,12.17417 -3.78222,2.13653 -7.85814,4.81694 -9.05759,5.95647 -2.10467,1.99952 -2.17273,2.15604 -1.94916,4.48276 0.17109,1.78063 1.08978,3.95856 3.51411,8.33088 1.80535,3.25598 3.28246,6.06156 3.28246,6.23462 0,0.51285 -1.08022,0.32011 -3.69565,-0.65941 z"
     id="path3434"
     inkscape:connector-curvature="0" />
  <path
     style="fill:#ffffff"
     d="m 578.15149,231.38974 c 0.002,-0.46226 1.01856,-2.61438 2.25898,-4.78249 3.27029,-5.71609 3.79754,-7.11101 3.03794,-8.03729 -1.00316,-1.22329 -8.44487,-5.95632 -16.82675,-10.70204 -4.29372,-2.43105 -7.91085,-4.68554 -8.03809,-5.00997 -0.12723,-0.32444 0.17594,-1.87662 0.67371,-3.44928 0.87637,-2.76881 1.00651,-2.91008 4.10794,-4.45936 4.53297,-2.26437 20.99445,-8.46049 84.63561,-31.85695 30.69523,-11.28452 56.9747,-20.95326 58.39882,-21.48609 2.56246,-0.95874 2.71956,-1.14383 15.147,-17.84542 l 12.5577,-16.87664 0.12664,33.71749 c 0.0697,18.54462 -0.0412,33.87548 -0.24638,34.0686 -0.27327,0.25722 -141.15516,52.31371 -153.98896,56.89962 -1.6713,0.5972 -1.84747,0.57999 -1.84416,-0.18018 z"
     id="path3436"
     inkscape:connector-curvature="0" />
  <path
     style="fill:#ffff00"
     d="m 402.55966,312.02486 c -0.17869,-5.73737 -0.32488,-12.57608 -0.32488,-15.19713 l 0,-4.76555 -7.88103,-2.29074 c -10.77326,-3.13141 -16.219,-5.20097 -24.88708,-9.45791 -12.3858,-6.08274 -21.07043,-12.31797 -33.38702,-23.97062 l -6.77833,-6.41293 -11.20718,6.37956 c -14.88132,8.47101 -14.39057,8.23081 -15.16291,7.42175 -0.98974,-1.03679 -24.87036,-43.22688 -24.87036,-43.93867 0,-0.1515 3.825,-2.54006 8.5,-5.30791 9.90773,-5.86591 15.60388,-9.61744 15.9425,-10.49987 0.13216,-0.3444 -0.64658,-4.48655 -1.73054,-9.20479 -2.98596,-12.99724 -3.24902,-15.63292 -3.24137,-32.47715 0.007,-16.0787 0.36316,-19.8122 2.96538,-31.11155 0.67663,-2.9381 1.36639,-6.64453 1.53278,-8.23649 l 0.30253,-2.89449 -2.40375,-1.65524 c -1.32207,-0.91038 -6.72492,-4.17153 -12.00633,-7.24701 -5.28142,-3.07547 -9.69067,-5.67986 -9.79834,-5.78754 -0.32811,-0.3281 23.79903,-43.455244 25.00759,-44.70094 0.19871,-0.204813 4.78371,2.099471 10.1889,5.120637 5.40518,3.021166 11.21788,6.149747 12.9171,6.952399 l 3.08949,1.459368 1.83804,-1.390851 c 1.01093,-0.76497 4.21835,-3.657991 7.12761,-6.428937 9.28508,-8.843641 19.21734,-15.722402 31.17421,-21.590245 9.39193,-4.609102 14.4347,-6.553366 24.59824,-9.483993 l 8.16011,-2.352946 0.005,-4.724897 c 0.002,-2.598694 0.15107,-9.419114 0.32975,-15.15649 l 0.32482,-10.4315928 25.91427,0.1275046 25.91425,0.1275046 0.3018,12.0724636 c 0.16599,6.639855 0.33229,13.420411 0.36957,15.067902 l 0.0678,2.995439 5.05073,1.395153 c 24.41342,6.743681 42.17501,16.437124 59.00317,32.20117 3.11891,2.921684 6.36237,5.81809 7.20769,6.436447 l 1.53696,1.124286 4.09184,-2.041823 c 2.25052,-1.123005 7.49605,-3.945626 11.65674,-6.272498 5.26572,-2.944863 8.09873,-4.247418 9.32139,-4.285764 l 1.75649,-0.05509 7.75627,13.550724 c 8.82165,15.412023 16.9175,30.105523 16.69587,30.302033 -0.0823,0.073 -3.69744,2.17508 -8.03367,4.67139 -10.04832,5.78469 -15.9482,9.47643 -16.20215,10.13819 -0.25834,0.67323 0.76834,6.85151 2.3296,14.01882 2.06895,9.4981 2.50813,14.59956 2.48161,28.82609 -0.0279,14.97293 -0.52084,19.63017 -3.35433,31.69182 -0.96908,4.12524 -1.76197,8.00784 -1.76197,8.62798 0,1.31184 4.32312,4.29945 16.86125,11.65242 l 7.74532,4.54222 -1.28471,2.53988 c -4.2329,8.36846 -22.52199,40.35273 -23.57314,41.22511 -0.94854,0.78722 -5.50308,-1.36303 -17.66169,-8.33829 l -8.79703,-5.04675 -1.30442,1.1465 c -0.71743,0.63059 -3.74356,3.48531 -6.72471,6.34384 -10.45391,10.02387 -20.53451,17.21841 -32.00223,22.84003 -8.46345,4.14889 -13.8112,6.19777 -24.20436,9.27339 l -8.59052,2.54217 -0.0687,2.74071 c -0.0378,1.50739 -0.2041,8.28419 -0.36956,15.05955 l -0.30085,12.31884 -25.91425,0.1275 -25.91427,0.12751 -0.32486,-10.4316 z m 33.18237,-54.64854 c 19.05904,-1.74024 38.974,-9.35626 50.75362,-19.40956 4.97089,-4.2424 14.82711,-14.26287 18.44345,-18.75082 4.20804,-5.22224 6.37668,-8.74518 9.62435,-15.63466 11.25036,-23.86607 12.38194,-49.97856 3.23013,-74.53925 -2.33584,-6.2687 -7.52687,-16.41174 -10.27256,-20.07214 -6.22224,-8.29514 -16.94285,-19.00173 -25.12179,-25.088928 -2.11752,-1.575969 -6.99578,-4.41689 -10.84058,-6.313149 -26.33688,-12.989405 -54.77799,-13.722647 -81.14995,-2.092129 -12.04798,5.313377 -17.71715,9.345807 -28.83629,20.510998 -9.31625,9.354828 -13.13755,14.425008 -17.4856,23.200278 -13.95331,28.16069 -14.01241,58.1758 -0.17008,86.39557 4.13501,8.42988 8.80409,14.64807 17.65375,23.51091 10.93819,10.95449 17.39967,15.53528 28.99124,20.55299 15.5236,6.7198 29.69286,9.14402 45.18031,7.72989 z"
     id="path3438"
     inkscape:connector-curvature="0" />
  <path
     style="fill:#ffff00"
     d="m 261.8,147.93936 c -39.52713,-14.50753 -69.30801,-25.55437 -83.17737,-30.85357 l -10.98897,-4.19866 -2.62935,-4.48777 c -3.41892,-5.83539 -6.8486,-12.616427 -6.5381,-12.926918 0.36895,-0.368957 107.76914,31.400518 123.77284,36.612588 3.79983,1.23752 8.32314,2.88747 10.05181,3.66655 l 3.14304,1.41651 -0.3414,2.09639 c -0.18777,1.15301 -0.74894,6.04753 -1.24703,10.8767 -0.49809,4.82918 -0.98273,8.8526 -1.07699,8.94094 -0.0943,0.0883 -14.03007,-4.9259 -30.96848,-11.14276 z"
     id="path3440"
     inkscape:connector-curvature="0" />
  <path
     style="fill:#ffff00"
     d="m 564.15941,154.29565 c -0.8225,-5.68062 -1.7797,-15.20749 -1.7797,-17.71297 l 0,-2.81322 4.55797,-1.45706 c 6.03904,-1.93052 63.58194,-19.19719 87.83333,-26.3558 29.09644,-8.588795 36.39496,-10.654878 36.66938,-10.380457 0.307,0.306996 -5.91491,12.504727 -7.77067,15.233997 -1.54958,2.27899 -1.92216,2.4442 -25.20305,11.17587 -19.92187,7.47184 -93.24377,34.40385 -93.66386,34.40385 -0.1871,0 -0.47664,-0.9424 -0.6434,-2.09421 z"
     id="path3442"
     inkscape:connector-curvature="0" />
  <path
     style="fill:#ffffff"
     d="M 88.708863,164.86751 C 66.959945,156.81581 60.951859,154.40754 60.295477,153.47835 59.112839,151.80419 27.799947,95.593805 19.837097,80.850725 12.699058,67.634769 8.9772261,60.401449 9.3151278,60.401449 c 1.8623662,0 62.2241392,13.265264 74.0402822,16.27129 13.334096,3.392192 11.556393,2.03335 23.19356,17.72871 l 10.04705,13.550721 -0.0398,33.4761 c -0.0219,18.41186 -0.0908,33.51524 -0.15308,33.56308 -0.0623,0.0478 -12.52472,-4.50789 -27.694262,-10.12384 l 5e-6,0 z"
     id="path3444"
     inkscape:connector-curvature="0" />
  <path
     style="fill:#ffffff"
     d="m 734.2029,140.76919 0,-33.95029 9.65062,-12.984086 c 11.17993,-15.041631 9.50845,-13.782979 22.79107,-17.162075 11.81614,-3.006026 72.17791,-16.27129 74.04028,-16.27129 0.33805,0 -3.3854,7.236117 -10.52246,20.449276 -10.5959,19.616655 -40.09803,72.356285 -40.96617,73.233365 -0.56012,0.56589 -53.95425,20.63944 -54.88964,20.6358 -0.057,-2.3e-4 -0.1037,-15.27804 -0.1037,-33.9507 z"
     id="path3446"
     inkscape:connector-curvature="0" />
</svg>
